<svg width="16" height="16" viewBox="0 0 16 16" fill="none" xmlns="http://www.w3.org/2000/svg">
<path d="M3.39984 10.7003C3.15539 10.2781 2.97206 9.84477 2.84984 9.40033C2.72762 8.95588 2.6665 8.50033 2.6665 8.03366C2.6665 6.54477 3.18317 5.2781 4.2165 4.23366C5.24984 3.18921 6.51095 2.66699 7.99984 2.66699H8.1165L7.04984 1.60033L7.98317 0.666992L10.6498 3.33366L7.98317 6.00033L7.04984 5.06699L8.1165 4.00033H7.99984C6.88873 4.00033 5.94428 4.39199 5.1665 5.17533C4.38873 5.95866 3.99984 6.91144 3.99984 8.03366C3.99984 8.32255 4.03317 8.60588 4.09984 8.88366C4.1665 9.16144 4.2665 9.43366 4.39984 9.70033L3.39984 10.7003ZM8.0165 15.3337L5.34984 12.667L8.0165 10.0003L8.94984 10.9337L7.88317 12.0003H7.99984C9.11095 12.0003 10.0554 11.6087 10.8332 10.8253C11.6109 10.042 11.9998 9.08922 11.9998 7.96699C11.9998 7.6781 11.9665 7.39477 11.8998 7.11699C11.8332 6.83921 11.7332 6.56699 11.5998 6.30033L12.5998 5.30033C12.8443 5.72255 13.0276 6.15588 13.1498 6.60033C13.2721 7.04477 13.3332 7.50033 13.3332 7.96699C13.3332 9.45588 12.8165 10.7225 11.7832 11.767C10.7498 12.8114 9.48873 13.3337 7.99984 13.3337H7.88317L8.94984 14.4003L8.0165 15.3337Z" fill="#E8EAED"/>
</svg>
