<svg width="12" height="12" viewBox="0 0 12 12" fill="none" xmlns="http://www.w3.org/2000/svg">
<rect width="12" height="12" rx="2" fill="white"/>
<path d="M10.6667 0H1.33333C0.6 0 0 0.6 0 1.33333V10.6667C0 11.4 0.6 12 1.33333 12H10.6667C11.4 12 12 11.4 12 10.6667V1.33333C12 0.6 11.4 0 10.6667 0ZM5.14 8.86C4.88 9.12 4.46 9.12 4.2 8.86L1.80667 6.46667C1.54667 6.20667 1.54667 5.78667 1.80667 5.52667C2.06667 5.26667 2.48667 5.26667 2.74667 5.52667L4.66667 7.44667L9.25333 2.86C9.51333 2.6 9.93333 2.6 10.1933 2.86C10.4533 3.12 10.4533 3.54 10.1933 3.8L5.14 8.86Z" fill="#284CA4"/>
</svg>
